<mxfile host="app.diagrams.net" agent="Mozilla/5.0 (Windows NT 10.0; Win64; x64; rv:135.0) Gecko/20100101 Firefox/135.0" version="26.0.16">
  <diagram name="Page-1" id="6yNs7k4PAEZrjurwBLwz">
    <mxGraphModel dx="1195" dy="652" grid="1" gridSize="10" guides="1" tooltips="1" connect="1" arrows="1" fold="1" page="1" pageScale="1" pageWidth="827" pageHeight="1169" math="0" shadow="0">
      <root>
        <mxCell id="0" />
        <mxCell id="1" parent="0" />
        <mxCell id="pYcm4P_6QauSgAT9s9r2-4" style="edgeStyle=orthogonalEdgeStyle;rounded=0;orthogonalLoop=1;jettySize=auto;html=1;" parent="1" source="pYcm4P_6QauSgAT9s9r2-1" target="pYcm4P_6QauSgAT9s9r2-3" edge="1">
          <mxGeometry relative="1" as="geometry" />
        </mxCell>
        <mxCell id="pYcm4P_6QauSgAT9s9r2-1" value="Login" style="ellipse;whiteSpace=wrap;html=1;aspect=fixed;" parent="1" vertex="1">
          <mxGeometry x="360" y="110" width="80" height="80" as="geometry" />
        </mxCell>
        <mxCell id="pYcm4P_6QauSgAT9s9r2-2" value="DB" style="shape=cylinder3;whiteSpace=wrap;html=1;boundedLbl=1;backgroundOutline=1;size=15;" parent="1" vertex="1">
          <mxGeometry x="680" y="260" width="60" height="80" as="geometry" />
        </mxCell>
        <mxCell id="kCrThlUq8kHWP68X670O-1" value="" style="edgeStyle=orthogonalEdgeStyle;rounded=0;orthogonalLoop=1;jettySize=auto;html=1;" edge="1" parent="1" source="pYcm4P_6QauSgAT9s9r2-3" target="pYcm4P_6QauSgAT9s9r2-6">
          <mxGeometry relative="1" as="geometry" />
        </mxCell>
        <mxCell id="pYcm4P_6QauSgAT9s9r2-3" value="Récupération du mot de passe et du sel" style="rounded=0;whiteSpace=wrap;html=1;" parent="1" vertex="1">
          <mxGeometry x="340" y="280" width="120" height="60" as="geometry" />
        </mxCell>
        <mxCell id="kCrThlUq8kHWP68X670O-2" value="" style="edgeStyle=orthogonalEdgeStyle;rounded=0;orthogonalLoop=1;jettySize=auto;html=1;" edge="1" parent="1" source="pYcm4P_6QauSgAT9s9r2-6" target="pYcm4P_6QauSgAT9s9r2-7">
          <mxGeometry relative="1" as="geometry" />
        </mxCell>
        <mxCell id="pYcm4P_6QauSgAT9s9r2-6" value="Hachage du mdp de l&#39;utilisateur concaténé au sel et au poivre" style="rounded=0;whiteSpace=wrap;html=1;" parent="1" vertex="1">
          <mxGeometry x="340" y="400" width="120" height="60" as="geometry" />
        </mxCell>
        <mxCell id="kCrThlUq8kHWP68X670O-3" value="" style="edgeStyle=orthogonalEdgeStyle;rounded=0;orthogonalLoop=1;jettySize=auto;html=1;" edge="1" parent="1" source="pYcm4P_6QauSgAT9s9r2-7" target="pYcm4P_6QauSgAT9s9r2-8">
          <mxGeometry relative="1" as="geometry" />
        </mxCell>
        <mxCell id="kCrThlUq8kHWP68X670O-5" value="&lt;div&gt;Oui&lt;/div&gt;&lt;div&gt;&lt;br&gt;&lt;/div&gt;" style="edgeLabel;html=1;align=center;verticalAlign=middle;resizable=0;points=[];" vertex="1" connectable="0" parent="kCrThlUq8kHWP68X670O-3">
          <mxGeometry x="0.36" y="2" relative="1" as="geometry">
            <mxPoint as="offset" />
          </mxGeometry>
        </mxCell>
        <mxCell id="kCrThlUq8kHWP68X670O-4" value="" style="edgeStyle=orthogonalEdgeStyle;rounded=0;orthogonalLoop=1;jettySize=auto;html=1;" edge="1" parent="1" source="pYcm4P_6QauSgAT9s9r2-7" target="pYcm4P_6QauSgAT9s9r2-9">
          <mxGeometry relative="1" as="geometry" />
        </mxCell>
        <mxCell id="kCrThlUq8kHWP68X670O-6" value="&lt;div&gt;Non&lt;/div&gt;&lt;div&gt;&lt;br&gt;&lt;/div&gt;" style="edgeLabel;html=1;align=center;verticalAlign=middle;resizable=0;points=[];" vertex="1" connectable="0" parent="kCrThlUq8kHWP68X670O-4">
          <mxGeometry x="0.3778" y="3" relative="1" as="geometry">
            <mxPoint as="offset" />
          </mxGeometry>
        </mxCell>
        <mxCell id="pYcm4P_6QauSgAT9s9r2-7" value="Hashs identiques ?" style="rhombus;whiteSpace=wrap;html=1;" parent="1" vertex="1">
          <mxGeometry x="320" y="505" width="160" height="80" as="geometry" />
        </mxCell>
        <mxCell id="kCrThlUq8kHWP68X670O-9" value="" style="edgeStyle=orthogonalEdgeStyle;rounded=0;orthogonalLoop=1;jettySize=auto;html=1;" edge="1" parent="1" source="pYcm4P_6QauSgAT9s9r2-8" target="kCrThlUq8kHWP68X670O-8">
          <mxGeometry relative="1" as="geometry" />
        </mxCell>
        <mxCell id="pYcm4P_6QauSgAT9s9r2-8" value="Générer un token JWT" style="rounded=0;whiteSpace=wrap;html=1;" parent="1" vertex="1">
          <mxGeometry x="580" y="515" width="120" height="60" as="geometry" />
        </mxCell>
        <mxCell id="pYcm4P_6QauSgAT9s9r2-9" value="Indiquer l&#39;erreur à l&#39;utlisateur : &quot;Mauvais mpd ou pwd&quot;" style="rounded=0;whiteSpace=wrap;html=1;" parent="1" vertex="1">
          <mxGeometry x="110" y="515" width="120" height="60" as="geometry" />
        </mxCell>
        <mxCell id="kCrThlUq8kHWP68X670O-7" value="" style="endArrow=classic;startArrow=classic;html=1;rounded=0;entryX=0;entryY=0;entryDx=0;entryDy=52.5;entryPerimeter=0;exitX=1;exitY=0.5;exitDx=0;exitDy=0;" edge="1" parent="1" source="pYcm4P_6QauSgAT9s9r2-3" target="pYcm4P_6QauSgAT9s9r2-2">
          <mxGeometry width="50" height="50" relative="1" as="geometry">
            <mxPoint x="390" y="420" as="sourcePoint" />
            <mxPoint x="440" y="370" as="targetPoint" />
          </mxGeometry>
        </mxCell>
        <mxCell id="kCrThlUq8kHWP68X670O-8" value="Le stocker dans les cookies" style="rounded=0;whiteSpace=wrap;html=1;" vertex="1" parent="1">
          <mxGeometry x="580" y="630" width="120" height="60" as="geometry" />
        </mxCell>
      </root>
    </mxGraphModel>
  </diagram>
</mxfile>
